<svg xmlns="http://www.w3.org/2000/svg" width="1000" height="620" viewBox="0 0 1000 620" role="img" aria-labelledby="title desc">
  <title id="title">Malha A-P-B: total, proibidos e permitidos</title><desc id="desc">Uso: contagem por decomposição em dois trechos.</desc>
  <rect width="1000" height="620" fill="#ffffff"/>
  <text x="50" y="52" font-family="Arial, Helvetica, sans-serif" font-size="27" text-anchor="start" font-weight="700" fill="#18202a">Malha A-P-B: total, proibidos e permitidos</text>
  <line x1="50" y1="72" x2="950" y2="72" stroke="#7a8a99" stroke-width="1" />
  <line x1="230" y1="250" x2="230" y2="410" stroke="#667788" stroke-width="1" /><line x1="310" y1="250" x2="310" y2="410" stroke="#667788" stroke-width="1" /><line x1="390" y1="250" x2="390" y2="410" stroke="#667788" stroke-width="1" /><line x1="470" y1="250" x2="470" y2="410" stroke="#667788" stroke-width="1" /><line x1="550" y1="250" x2="550" y2="410" stroke="#667788" stroke-width="1" /><line x1="230" y1="250" x2="550" y2="250" stroke="#667788" stroke-width="1" /><line x1="230" y1="330" x2="550" y2="330" stroke="#667788" stroke-width="1" /><line x1="230" y1="410" x2="550" y2="410" stroke="#667788" stroke-width="1" /><circle cx="230" cy="410" r="8" fill="#2c7a7b"/><text x="230" y="395" font-family="Arial, Helvetica, sans-serif" font-size="18" text-anchor="middle" font-weight="700" fill="#18202a">A</text><circle cx="550" cy="250" r="8" fill="#244b74"/><text x="550" y="235" font-family="Arial, Helvetica, sans-serif" font-size="18" text-anchor="middle" font-weight="700" fill="#18202a">B</text><circle cx="390" cy="330" r="8" fill="#9b2c2c"/><text x="390" y="315" font-family="Arial, Helvetica, sans-serif" font-size="18" text-anchor="middle" font-weight="700" fill="#18202a">P</text><text x="690" y="220" font-family="Arial, Helvetica, sans-serif" font-size="17" text-anchor="start" font-weight="700" fill="#18202a">P: ponto proibido</text><text x="690" y="252" font-family="Arial, Helvetica, sans-serif" font-size="16" text-anchor="start" font-weight="400" fill="#18202a">total - caminhos por P</text><text x="690" y="150" font-family="Arial, Helvetica, sans-serif" font-size="18" text-anchor="start" font-weight="700" fill="#18202a">4 direita / 2 cima</text>
  <text x="50" y="590" font-family="Arial, Helvetica, sans-serif" font-size="14" text-anchor="start" font-weight="400" fill="#18202a">Uso: contagem por decomposição em dois trechos.</text>
  </svg>