<svg xmlns="http://www.w3.org/2000/svg" width="1000" height="620" viewBox="0 0 1000 620" role="img" aria-labelledby="title desc">
  <title id="title">Mapa da Mochila</title><desc id="desc">Uso: problema misto; sete portas conduzem à pergunta final sem diagnóstico automático.</desc>
  <rect width="1000" height="620" fill="#ffffff"/>
  <text x="50" y="52" font-family="Arial, Helvetica, sans-serif" font-size="27" text-anchor="start" font-weight="700" fill="#18202a">Mapa da Mochila</text>
  <line x1="50" y1="72" x2="950" y2="72" stroke="#7a8a99" stroke-width="1" />
  <rect x="350" y="110" width="300" height="76" rx="4" fill="#f6f8fa" stroke="#18202a" stroke-width="2"/><text x="500" y="144" font-family="Arial, Helvetica, sans-serif" font-size="17" text-anchor="middle" font-weight="700" fill="#18202a">números</text><line x1="500" y1="186" x2="500" y2="153.71428571428572" stroke="#506070" stroke-width="2" /><path d="M 492 148.71428571428572 L 500 153.71428571428572 L 492 158.71428571428572" fill="none" stroke="#506070" stroke-width="2"/><rect x="350" y="165.71428571428572" width="300" height="76" rx="4" fill="#f6f8fa" stroke="#18202a" stroke-width="2"/><text x="500" y="199.71428571428572" font-family="Arial, Helvetica, sans-serif" font-size="17" text-anchor="middle" font-weight="700" fill="#18202a">ciclos</text><line x1="500" y1="241.71428571428572" x2="500" y2="209.42857142857144" stroke="#506070" stroke-width="2" /><path d="M 492 204.42857142857144 L 500 209.42857142857144 L 492 214.42857142857144" fill="none" stroke="#506070" stroke-width="2"/><rect x="350" y="221.42857142857144" width="300" height="76" rx="4" fill="#f6f8fa" stroke="#18202a" stroke-width="2"/><text x="500" y="255.42857142857144" font-family="Arial, Helvetica, sans-serif" font-size="17" text-anchor="middle" font-weight="700" fill="#18202a">frações</text><line x1="500" y1="297.42857142857144" x2="500" y2="265.1428571428571" stroke="#506070" stroke-width="2" /><path d="M 492 260.1428571428571 L 500 265.1428571428571 L 492 270.1428571428571" fill="none" stroke="#506070" stroke-width="2"/><rect x="350" y="277.1428571428571" width="300" height="76" rx="4" fill="#f6f8fa" stroke="#18202a" stroke-width="2"/><text x="500" y="311.1428571428571" font-family="Arial, Helvetica, sans-serif" font-size="17" text-anchor="middle" font-weight="700" fill="#18202a">padrões</text><line x1="500" y1="353.1428571428571" x2="500" y2="320.8571428571429" stroke="#506070" stroke-width="2" /><path d="M 492 315.8571428571429 L 500 320.8571428571429 L 492 325.8571428571429" fill="none" stroke="#506070" stroke-width="2"/><rect x="350" y="332.8571428571429" width="300" height="76" rx="4" fill="#f6f8fa" stroke="#18202a" stroke-width="2"/><text x="500" y="366.8571428571429" font-family="Arial, Helvetica, sans-serif" font-size="17" text-anchor="middle" font-weight="700" fill="#18202a">figuras</text><line x1="500" y1="408.8571428571429" x2="500" y2="376.57142857142856" stroke="#506070" stroke-width="2" /><path d="M 492 371.57142857142856 L 500 376.57142857142856 L 492 381.57142857142856" fill="none" stroke="#506070" stroke-width="2"/><rect x="350" y="388.57142857142856" width="300" height="76" rx="4" fill="#f6f8fa" stroke="#18202a" stroke-width="2"/><text x="500" y="422.57142857142856" font-family="Arial, Helvetica, sans-serif" font-size="17" text-anchor="middle" font-weight="700" fill="#18202a">contagem</text><line x1="500" y1="464.57142857142856" x2="500" y2="432.2857142857143" stroke="#506070" stroke-width="2" /><path d="M 492 427.2857142857143 L 500 432.2857142857143 L 492 437.2857142857143" fill="none" stroke="#506070" stroke-width="2"/><rect x="350" y="444.2857142857143" width="300" height="76" rx="4" fill="#f6f8fa" stroke="#18202a" stroke-width="2"/><text x="500" y="478.2857142857143" font-family="Arial, Helvetica, sans-serif" font-size="17" text-anchor="middle" font-weight="700" fill="#18202a">lógica</text>
  <text x="50" y="590" font-family="Arial, Helvetica, sans-serif" font-size="14" text-anchor="start" font-weight="400" fill="#18202a">Uso: problema misto; sete portas conduzem à pergunta final sem diagnóstico automático.</text>
  </svg>