<svg xmlns="http://www.w3.org/2000/svg" width="1000" height="620" viewBox="0 0 1000 620" role="img" aria-labelledby="title desc">
  <title id="title">Malha 2 por 3 com P em (1,1)</title><desc id="desc">Uso: caminho proibido; distingue total, por P e permitido.</desc>
  <rect width="1000" height="620" fill="#ffffff"/>
  <text x="50" y="52" font-family="Arial, Helvetica, sans-serif" font-size="27" text-anchor="start" font-weight="700" fill="#18202a">Malha 2 por 3 com P em (1,1)</text>
  <line x1="50" y1="72" x2="950" y2="72" stroke="#7a8a99" stroke-width="1" />
  <line x1="230" y1="210" x2="230" y2="450" stroke="#667788" stroke-width="1" /><line x1="310" y1="210" x2="310" y2="450" stroke="#667788" stroke-width="1" /><line x1="390" y1="210" x2="390" y2="450" stroke="#667788" stroke-width="1" /><line x1="230" y1="210" x2="390" y2="210" stroke="#667788" stroke-width="1" /><line x1="230" y1="290" x2="390" y2="290" stroke="#667788" stroke-width="1" /><line x1="230" y1="370" x2="390" y2="370" stroke="#667788" stroke-width="1" /><line x1="230" y1="450" x2="390" y2="450" stroke="#667788" stroke-width="1" /><circle cx="230" cy="450" r="8" fill="#2c7a7b"/><text x="230" y="435" font-family="Arial, Helvetica, sans-serif" font-size="18" text-anchor="middle" font-weight="700" fill="#18202a">A</text><circle cx="390" cy="210" r="8" fill="#244b74"/><text x="390" y="195" font-family="Arial, Helvetica, sans-serif" font-size="18" text-anchor="middle" font-weight="700" fill="#18202a">B</text><circle cx="310" cy="370" r="8" fill="#9b2c2c"/><text x="310" y="355" font-family="Arial, Helvetica, sans-serif" font-size="18" text-anchor="middle" font-weight="700" fill="#18202a">P</text><text x="690" y="220" font-family="Arial, Helvetica, sans-serif" font-size="17" text-anchor="start" font-weight="700" fill="#18202a">P: ponto proibido</text><text x="690" y="252" font-family="Arial, Helvetica, sans-serif" font-size="16" text-anchor="start" font-weight="400" fill="#18202a">total - caminhos por P</text><text x="690" y="150" font-family="Arial, Helvetica, sans-serif" font-size="18" text-anchor="start" font-weight="700" fill="#18202a">2 direita / 3 cima</text>
  <text x="50" y="590" font-family="Arial, Helvetica, sans-serif" font-size="14" text-anchor="start" font-weight="400" fill="#18202a">Uso: caminho proibido; distingue total, por P e permitido.</text>
  </svg>