<svg xmlns="http://www.w3.org/2000/svg" width="1000" height="620" viewBox="0 0 1000 620" role="img" aria-labelledby="title desc">
  <title id="title">Árvore de fatoração de 84</title><desc id="desc">Uso: decomposição em primos; torna visível a ramificação 84 -&gt; 2 e 42 -&gt; 2 e 21 -&gt; 3 e 7.</desc>
  <rect width="1000" height="620" fill="#ffffff"/>
  <text x="50" y="52" font-family="Arial, Helvetica, sans-serif" font-size="27" text-anchor="start" font-weight="700" fill="#18202a">Árvore de fatoração de 84</text>
  <line x1="50" y1="72" x2="950" y2="72" stroke="#7a8a99" stroke-width="1" />
  <text x="500" y="125" font-family="Arial, Helvetica, sans-serif" font-size="24" text-anchor="middle" font-weight="700" fill="#18202a">84</text><line x1="500" y1="145" x2="300" y2="235" stroke="#506070" stroke-width="2" /><path d="M 292 230 L 300 235 L 292 240" fill="none" stroke="#506070" stroke-width="2"/><text x="400" y="182" font-family="Arial, Helvetica, sans-serif" font-size="14" text-anchor="middle" font-weight="400" fill="#18202a">2</text><line x1="500" y1="145" x2="700" y2="235" stroke="#506070" stroke-width="2" /><path d="M 692 230 L 700 235 L 692 240" fill="none" stroke="#506070" stroke-width="2"/><text x="600" y="182" font-family="Arial, Helvetica, sans-serif" font-size="14" text-anchor="middle" font-weight="400" fill="#18202a">42</text><text x="300" y="260" font-family="Arial, Helvetica, sans-serif" font-size="22" text-anchor="middle" font-weight="700" fill="#18202a">2</text><text x="700" y="260" font-family="Arial, Helvetica, sans-serif" font-size="22" text-anchor="middle" font-weight="700" fill="#18202a">42</text><line x1="700" y1="280" x2="575" y2="370" stroke="#506070" stroke-width="2" /><path d="M 567 365 L 575 370 L 567 375" fill="none" stroke="#506070" stroke-width="2"/><text x="637.5" y="317" font-family="Arial, Helvetica, sans-serif" font-size="14" text-anchor="middle" font-weight="400" fill="#18202a">2</text><line x1="700" y1="280" x2="825" y2="370" stroke="#506070" stroke-width="2" /><path d="M 817 365 L 825 370 L 817 375" fill="none" stroke="#506070" stroke-width="2"/><text x="762.5" y="317" font-family="Arial, Helvetica, sans-serif" font-size="14" text-anchor="middle" font-weight="400" fill="#18202a">21</text><text x="575" y="395" font-family="Arial, Helvetica, sans-serif" font-size="22" text-anchor="middle" font-weight="700" fill="#18202a">2</text><text x="825" y="395" font-family="Arial, Helvetica, sans-serif" font-size="22" text-anchor="middle" font-weight="700" fill="#18202a">21</text><line x1="825" y1="415" x2="745" y2="500" stroke="#506070" stroke-width="2" /><path d="M 737 495 L 745 500 L 737 505" fill="none" stroke="#506070" stroke-width="2"/><text x="785" y="449.5" font-family="Arial, Helvetica, sans-serif" font-size="14" text-anchor="middle" font-weight="400" fill="#18202a">3</text><line x1="825" y1="415" x2="905" y2="500" stroke="#506070" stroke-width="2" /><path d="M 897 495 L 905 500 L 897 505" fill="none" stroke="#506070" stroke-width="2"/><text x="865" y="449.5" font-family="Arial, Helvetica, sans-serif" font-size="14" text-anchor="middle" font-weight="400" fill="#18202a">7</text><text x="745" y="525" font-family="Arial, Helvetica, sans-serif" font-size="22" text-anchor="middle" font-weight="700" fill="#18202a">3</text><text x="905" y="525" font-family="Arial, Helvetica, sans-serif" font-size="22" text-anchor="middle" font-weight="700" fill="#18202a">7</text>
  <text x="50" y="590" font-family="Arial, Helvetica, sans-serif" font-size="14" text-anchor="start" font-weight="400" fill="#18202a">Uso: decomposição em primos; torna visível a ramificação 84 -&gt; 2 e 42 -&gt; 2 e 21 -&gt; 3 e 7.</text>
  </svg>