<svg xmlns="http://www.w3.org/2000/svg" width="1000" height="620" viewBox="0 0 1000 620" role="img" aria-labelledby="title desc">
  <title id="title">Crescimento de 1, 3, 6, 10 e 15 pontos</title><desc id="desc">Uso: padrão de pontos; mostra a nova fileira em cada etapa.</desc>
  <rect width="1000" height="620" fill="#ffffff"/>
  <text x="50" y="52" font-family="Arial, Helvetica, sans-serif" font-size="27" text-anchor="start" font-weight="700" fill="#18202a">Crescimento de 1, 3, 6, 10 e 15 pontos</text>
  <line x1="50" y1="72" x2="950" y2="72" stroke="#7a8a99" stroke-width="1" />
  <circle cx="110" cy="170" r="7" fill="#244b74"/><text x="110" y="360" font-family="Arial, Helvetica, sans-serif" font-size="18" text-anchor="middle" font-weight="700" fill="#18202a">1</text><circle cx="285" cy="170" r="7" fill="#244b74"/><circle cx="274" cy="194" r="7" fill="#244b74"/><circle cx="296" cy="194" r="7" fill="#244b74"/><text x="285" y="360" font-family="Arial, Helvetica, sans-serif" font-size="18" text-anchor="middle" font-weight="700" fill="#18202a">3</text><circle cx="460" cy="170" r="7" fill="#244b74"/><circle cx="449" cy="194" r="7" fill="#244b74"/><circle cx="471" cy="194" r="7" fill="#244b74"/><circle cx="438" cy="218" r="7" fill="#244b74"/><circle cx="460" cy="218" r="7" fill="#244b74"/><circle cx="482" cy="218" r="7" fill="#244b74"/><text x="460" y="360" font-family="Arial, Helvetica, sans-serif" font-size="18" text-anchor="middle" font-weight="700" fill="#18202a">6</text><circle cx="635" cy="170" r="7" fill="#244b74"/><circle cx="624" cy="194" r="7" fill="#244b74"/><circle cx="646" cy="194" r="7" fill="#244b74"/><circle cx="613" cy="218" r="7" fill="#244b74"/><circle cx="635" cy="218" r="7" fill="#244b74"/><circle cx="657" cy="218" r="7" fill="#244b74"/><circle cx="602" cy="242" r="7" fill="#244b74"/><circle cx="624" cy="242" r="7" fill="#244b74"/><circle cx="646" cy="242" r="7" fill="#244b74"/><circle cx="668" cy="242" r="7" fill="#244b74"/><text x="635" y="360" font-family="Arial, Helvetica, sans-serif" font-size="18" text-anchor="middle" font-weight="700" fill="#18202a">10</text><circle cx="810" cy="170" r="7" fill="#244b74"/><circle cx="799" cy="194" r="7" fill="#244b74"/><circle cx="821" cy="194" r="7" fill="#244b74"/><circle cx="788" cy="218" r="7" fill="#244b74"/><circle cx="810" cy="218" r="7" fill="#244b74"/><circle cx="832" cy="218" r="7" fill="#244b74"/><circle cx="777" cy="242" r="7" fill="#244b74"/><circle cx="799" cy="242" r="7" fill="#244b74"/><circle cx="821" cy="242" r="7" fill="#244b74"/><circle cx="843" cy="242" r="7" fill="#244b74"/><circle cx="766" cy="266" r="7" fill="#244b74"/><circle cx="788" cy="266" r="7" fill="#244b74"/><circle cx="810" cy="266" r="7" fill="#244b74"/><circle cx="832" cy="266" r="7" fill="#244b74"/><circle cx="854" cy="266" r="7" fill="#244b74"/><text x="810" y="360" font-family="Arial, Helvetica, sans-serif" font-size="18" text-anchor="middle" font-weight="700" fill="#18202a">15</text>
  <text x="50" y="590" font-family="Arial, Helvetica, sans-serif" font-size="14" text-anchor="start" font-weight="400" fill="#18202a">Uso: padrão de pontos; mostra a nova fileira em cada etapa.</text>
  </svg>