<svg xmlns="http://www.w3.org/2000/svg" width="1000" height="620" viewBox="0 0 1000 620" role="img" aria-labelledby="title desc">
  <title id="title">Escadas de 1, 3, 6 e 10</title><desc id="desc">Uso: soma triangular; torna visível a escada complementar e o retângulo.</desc>
  <rect width="1000" height="620" fill="#ffffff"/>
  <text x="50" y="52" font-family="Arial, Helvetica, sans-serif" font-size="27" text-anchor="start" font-weight="700" fill="#18202a">Escadas de 1, 3, 6 e 10</text>
  <line x1="50" y1="72" x2="950" y2="72" stroke="#7a8a99" stroke-width="1" />
  <rect x="65" y="170" width="42" height="42" rx="0" fill="#ffffff" stroke="#18202a" stroke-width="2"/><text x="86" y="245" font-family="Arial, Helvetica, sans-serif" font-size="18" text-anchor="middle" font-weight="700" fill="#18202a">1</text><rect x="285" y="170" width="42" height="42" rx="0" fill="#ffffff" stroke="#18202a" stroke-width="2"/><rect x="327" y="170" width="42" height="42" rx="0" fill="#dcecf7" stroke="#18202a" stroke-width="2"/><text x="327" y="245" font-family="Arial, Helvetica, sans-serif" font-size="18" text-anchor="middle" font-weight="700" fill="#18202a">3</text><rect x="505" y="170" width="42" height="42" rx="0" fill="#ffffff" stroke="#18202a" stroke-width="2"/><rect x="547" y="170" width="42" height="42" rx="0" fill="#ffffff" stroke="#18202a" stroke-width="2"/><rect x="589" y="170" width="42" height="42" rx="0" fill="#dcecf7" stroke="#18202a" stroke-width="2"/><text x="568" y="245" font-family="Arial, Helvetica, sans-serif" font-size="18" text-anchor="middle" font-weight="700" fill="#18202a">6</text><rect x="725" y="170" width="42" height="42" rx="0" fill="#ffffff" stroke="#18202a" stroke-width="2"/><rect x="767" y="170" width="42" height="42" rx="0" fill="#ffffff" stroke="#18202a" stroke-width="2"/><rect x="809" y="170" width="42" height="42" rx="0" fill="#ffffff" stroke="#18202a" stroke-width="2"/><rect x="851" y="170" width="42" height="42" rx="0" fill="#dcecf7" stroke="#18202a" stroke-width="2"/><text x="809" y="245" font-family="Arial, Helvetica, sans-serif" font-size="18" text-anchor="middle" font-weight="700" fill="#18202a">10</text>
  <text x="50" y="590" font-family="Arial, Helvetica, sans-serif" font-size="14" text-anchor="start" font-weight="400" fill="#18202a">Uso: soma triangular; torna visível a escada complementar e o retângulo.</text>
  </svg>