<svg xmlns="http://www.w3.org/2000/svg" width="1000" height="620" viewBox="0 0 1000 620" role="img" aria-labelledby="title desc">
  <title id="title">Área e perímetro na malha</title><desc id="desc">Uso: separa contorno externo e quadradinhos internos.</desc>
  <rect width="1000" height="620" fill="#ffffff"/>
  <text x="50" y="52" font-family="Arial, Helvetica, sans-serif" font-size="27" text-anchor="start" font-weight="700" fill="#18202a">Área e perímetro na malha</text>
  <line x1="50" y1="72" x2="950" y2="72" stroke="#7a8a99" stroke-width="1" />
  <line x1="230" y1="210" x2="230" y2="450" stroke="#667788" stroke-width="1" /><line x1="310" y1="210" x2="310" y2="450" stroke="#667788" stroke-width="1" /><line x1="390" y1="210" x2="390" y2="450" stroke="#667788" stroke-width="1" /><line x1="470" y1="210" x2="470" y2="450" stroke="#667788" stroke-width="1" /><line x1="550" y1="210" x2="550" y2="450" stroke="#667788" stroke-width="1" /><line x1="230" y1="210" x2="550" y2="210" stroke="#667788" stroke-width="1" /><line x1="230" y1="290" x2="550" y2="290" stroke="#667788" stroke-width="1" /><line x1="230" y1="370" x2="550" y2="370" stroke="#667788" stroke-width="1" /><line x1="230" y1="450" x2="550" y2="450" stroke="#667788" stroke-width="1" /><circle cx="230" cy="450" r="8" fill="#2c7a7b"/><text x="230" y="435" font-family="Arial, Helvetica, sans-serif" font-size="18" text-anchor="middle" font-weight="700" fill="#18202a">A</text><circle cx="550" cy="210" r="8" fill="#244b74"/><text x="550" y="195" font-family="Arial, Helvetica, sans-serif" font-size="18" text-anchor="middle" font-weight="700" fill="#18202a">B</text><text x="690" y="150" font-family="Arial, Helvetica, sans-serif" font-size="18" text-anchor="start" font-weight="700" fill="#18202a">4 direita / 3 cima</text>
  <text x="50" y="590" font-family="Arial, Helvetica, sans-serif" font-size="14" text-anchor="start" font-weight="400" fill="#18202a">Uso: separa contorno externo e quadradinhos internos.</text>
  </svg>