<svg xmlns="http://www.w3.org/2000/svg" width="1000" height="620" viewBox="0 0 1000 620" role="img" aria-labelledby="title desc">
  <title id="title">Malha 3 por 2 com rota-exemplo</title><desc id="desc">Uso: caminhos; A no canto inferior esquerdo e B no superior direito, só direita e cima.</desc>
  <rect width="1000" height="620" fill="#ffffff"/>
  <text x="50" y="52" font-family="Arial, Helvetica, sans-serif" font-size="27" text-anchor="start" font-weight="700" fill="#18202a">Malha 3 por 2 com rota-exemplo</text>
  <line x1="50" y1="72" x2="950" y2="72" stroke="#7a8a99" stroke-width="1" />
  <line x1="230" y1="250" x2="230" y2="410" stroke="#667788" stroke-width="1" /><line x1="310" y1="250" x2="310" y2="410" stroke="#667788" stroke-width="1" /><line x1="390" y1="250" x2="390" y2="410" stroke="#667788" stroke-width="1" /><line x1="470" y1="250" x2="470" y2="410" stroke="#667788" stroke-width="1" /><line x1="230" y1="250" x2="470" y2="250" stroke="#667788" stroke-width="1" /><line x1="230" y1="330" x2="470" y2="330" stroke="#667788" stroke-width="1" /><line x1="230" y1="410" x2="470" y2="410" stroke="#667788" stroke-width="1" /><circle cx="230" cy="410" r="8" fill="#2c7a7b"/><text x="230" y="395" font-family="Arial, Helvetica, sans-serif" font-size="18" text-anchor="middle" font-weight="700" fill="#18202a">A</text><circle cx="470" cy="250" r="8" fill="#244b74"/><text x="470" y="235" font-family="Arial, Helvetica, sans-serif" font-size="18" text-anchor="middle" font-weight="700" fill="#18202a">B</text><line x1="230" y1="410" x2="310" y2="410" stroke="#2c7a7b" stroke-width="5" /><line x1="310" y1="410" x2="310" y2="330" stroke="#2c7a7b" stroke-width="5" /><line x1="310" y1="330" x2="390" y2="330" stroke="#2c7a7b" stroke-width="5" /><line x1="390" y1="330" x2="390" y2="250" stroke="#2c7a7b" stroke-width="5" /><line x1="390" y1="250" x2="470" y2="250" stroke="#2c7a7b" stroke-width="5" /><text x="690" y="150" font-family="Arial, Helvetica, sans-serif" font-size="18" text-anchor="start" font-weight="700" fill="#18202a">3 direita / 2 cima</text>
  <text x="50" y="590" font-family="Arial, Helvetica, sans-serif" font-size="14" text-anchor="start" font-weight="400" fill="#18202a">Uso: caminhos; A no canto inferior esquerdo e B no superior direito, só direita e cima.</text>
  </svg>