<svg xmlns="http://www.w3.org/2000/svg" width="1000" height="620" viewBox="0 0 1000 620" role="img" aria-labelledby="title desc">
  <title id="title">Árvore de possibilidades A/B e 1/2/3</title><desc id="desc">Uso: princípio multiplicativo; mantém a ordem das escolhas e as seis folhas.</desc>
  <rect width="1000" height="620" fill="#ffffff"/>
  <text x="50" y="52" font-family="Arial, Helvetica, sans-serif" font-size="27" text-anchor="start" font-weight="700" fill="#18202a">Árvore de possibilidades A/B e 1/2/3</text>
  <line x1="50" y1="72" x2="950" y2="72" stroke="#7a8a99" stroke-width="1" />
  <rect x="420" y="115" width="160" height="55" rx="4" fill="#dcecf7" stroke="#18202a" stroke-width="2"/><text x="500" y="150" font-family="Arial, Helvetica, sans-serif" font-size="18" text-anchor="middle" font-weight="700" fill="#18202a">A</text><line x1="500" y1="170" x2="260" y2="230" stroke="#506070" stroke-width="2" /><path d="M 252 225 L 260 230 L 252 235" fill="none" stroke="#506070" stroke-width="2"/><circle cx="260" cy="260" r="28" fill="#f6f8fa" stroke="#18202a" stroke-width="2"/><text x="260" y="266" font-family="Arial, Helvetica, sans-serif" font-size="18" text-anchor="middle" font-weight="700" fill="#18202a">B</text><line x1="260" y1="288" x2="170" y2="395" stroke="#506070" stroke-width="2" /><path d="M 162 390 L 170 395 L 162 400" fill="none" stroke="#506070" stroke-width="2"/><circle cx="170" cy="420" r="25" fill="#ffffff" stroke="#18202a" stroke-width="2"/><text x="170" y="426" font-family="Arial, Helvetica, sans-serif" font-size="16" text-anchor="middle" font-weight="700" fill="#18202a">1</text><line x1="260" y1="288" x2="260" y2="395" stroke="#506070" stroke-width="2" /><path d="M 252 390 L 260 395 L 252 400" fill="none" stroke="#506070" stroke-width="2"/><circle cx="260" cy="420" r="25" fill="#ffffff" stroke="#18202a" stroke-width="2"/><text x="260" y="426" font-family="Arial, Helvetica, sans-serif" font-size="16" text-anchor="middle" font-weight="700" fill="#18202a">2</text><line x1="260" y1="288" x2="350" y2="395" stroke="#506070" stroke-width="2" /><path d="M 342 390 L 350 395 L 342 400" fill="none" stroke="#506070" stroke-width="2"/><circle cx="350" cy="420" r="25" fill="#ffffff" stroke="#18202a" stroke-width="2"/><text x="350" y="426" font-family="Arial, Helvetica, sans-serif" font-size="16" text-anchor="middle" font-weight="700" fill="#18202a">3</text><line x1="500" y1="170" x2="680" y2="230" stroke="#506070" stroke-width="2" /><path d="M 672 225 L 680 230 L 672 235" fill="none" stroke="#506070" stroke-width="2"/><circle cx="680" cy="260" r="28" fill="#f6f8fa" stroke="#18202a" stroke-width="2"/><text x="680" y="266" font-family="Arial, Helvetica, sans-serif" font-size="18" text-anchor="middle" font-weight="700" fill="#18202a">1,2,3</text><line x1="680" y1="288" x2="590" y2="395" stroke="#506070" stroke-width="2" /><path d="M 582 390 L 590 395 L 582 400" fill="none" stroke="#506070" stroke-width="2"/><circle cx="590" cy="420" r="25" fill="#ffffff" stroke="#18202a" stroke-width="2"/><text x="590" y="426" font-family="Arial, Helvetica, sans-serif" font-size="16" text-anchor="middle" font-weight="700" fill="#18202a">1</text><line x1="680" y1="288" x2="680" y2="395" stroke="#506070" stroke-width="2" /><path d="M 672 390 L 680 395 L 672 400" fill="none" stroke="#506070" stroke-width="2"/><circle cx="680" cy="420" r="25" fill="#ffffff" stroke="#18202a" stroke-width="2"/><text x="680" y="426" font-family="Arial, Helvetica, sans-serif" font-size="16" text-anchor="middle" font-weight="700" fill="#18202a">2</text><line x1="680" y1="288" x2="770" y2="395" stroke="#506070" stroke-width="2" /><path d="M 762 390 L 770 395 L 762 400" fill="none" stroke="#506070" stroke-width="2"/><circle cx="770" cy="420" r="25" fill="#ffffff" stroke="#18202a" stroke-width="2"/><text x="770" y="426" font-family="Arial, Helvetica, sans-serif" font-size="16" text-anchor="middle" font-weight="700" fill="#18202a">3</text>
  <text x="50" y="590" font-family="Arial, Helvetica, sans-serif" font-size="14" text-anchor="start" font-weight="400" fill="#18202a">Uso: princípio multiplicativo; mantém a ordem das escolhas e as seis folhas.</text>
  </svg>