<svg xmlns="http://www.w3.org/2000/svg" width="1000" height="620" viewBox="0 0 1000 620" role="img" aria-labelledby="title desc">
  <title id="title">Grade de eliminação Leo-Maira</title><desc id="desc">Uso: lugares; mostra casos riscados e disposição final destacada.</desc>
  <rect width="1000" height="620" fill="#ffffff"/>
  <text x="50" y="52" font-family="Arial, Helvetica, sans-serif" font-size="27" text-anchor="start" font-weight="700" fill="#18202a">Grade de eliminação Leo-Maira</text>
  <line x1="50" y1="72" x2="950" y2="72" stroke="#7a8a99" stroke-width="1" />
  <rect x="55" y="135" width="222.5" height="72" rx="4" fill="#dcecf7" stroke="#18202a" stroke-width="2"/><text x="166.25" y="177" font-family="Arial, Helvetica, sans-serif" font-size="16" text-anchor="middle" font-weight="700" fill="#18202a">Lugar 1</text><rect x="277.5" y="135" width="222.5" height="72" rx="4" fill="#dcecf7" stroke="#18202a" stroke-width="2"/><text x="388.75" y="177" font-family="Arial, Helvetica, sans-serif" font-size="16" text-anchor="middle" font-weight="700" fill="#18202a">Lugar 2</text><rect x="500" y="135" width="222.5" height="72" rx="4" fill="#dcecf7" stroke="#18202a" stroke-width="2"/><text x="611.25" y="177" font-family="Arial, Helvetica, sans-serif" font-size="16" text-anchor="middle" font-weight="700" fill="#18202a">Lugar 3</text><rect x="722.5" y="135" width="222.5" height="72" rx="4" fill="#dcecf7" stroke="#18202a" stroke-width="2"/><text x="833.75" y="177" font-family="Arial, Helvetica, sans-serif" font-size="16" text-anchor="middle" font-weight="700" fill="#18202a">Lugar 4</text><rect x="55" y="207" width="222.5" height="72" rx="4" fill="#ffffff" stroke="#18202a" stroke-width="2"/><text x="67" y="249" font-family="Arial, Helvetica, sans-serif" font-size="14" text-anchor="start" font-weight="700" fill="#18202a">Leo</text><rect x="277.5" y="207" width="222.5" height="72" rx="4" fill="#ffffff" stroke="#18202a" stroke-width="2"/><text x="289.5" y="249" font-family="Arial, Helvetica, sans-serif" font-size="14" text-anchor="start" font-weight="400" fill="#18202a">Maira</text><rect x="500" y="207" width="222.5" height="72" rx="4" fill="#ffffff" stroke="#18202a" stroke-width="2"/><text x="512" y="249" font-family="Arial, Helvetica, sans-serif" font-size="14" text-anchor="start" font-weight="400" fill="#18202a">riscado</text><rect x="722.5" y="207" width="222.5" height="72" rx="4" fill="#ffffff" stroke="#18202a" stroke-width="2"/><text x="734.5" y="249" font-family="Arial, Helvetica, sans-serif" font-size="14" text-anchor="start" font-weight="400" fill="#18202a">riscado</text><rect x="55" y="279" width="222.5" height="72" rx="4" fill="#ffffff" stroke="#18202a" stroke-width="2"/><text x="67" y="321" font-family="Arial, Helvetica, sans-serif" font-size="14" text-anchor="start" font-weight="700" fill="#18202a">riscado</text><rect x="277.5" y="279" width="222.5" height="72" rx="4" fill="#ffffff" stroke="#18202a" stroke-width="2"/><text x="289.5" y="321" font-family="Arial, Helvetica, sans-serif" font-size="14" text-anchor="start" font-weight="400" fill="#18202a">Leo</text><rect x="500" y="279" width="222.5" height="72" rx="4" fill="#ffffff" stroke="#18202a" stroke-width="2"/><text x="512" y="321" font-family="Arial, Helvetica, sans-serif" font-size="14" text-anchor="start" font-weight="400" fill="#18202a">Maira</text><rect x="722.5" y="279" width="222.5" height="72" rx="4" fill="#ffffff" stroke="#18202a" stroke-width="2"/><text x="734.5" y="321" font-family="Arial, Helvetica, sans-serif" font-size="14" text-anchor="start" font-weight="400" fill="#18202a">riscado</text><rect x="55" y="351" width="222.5" height="72" rx="4" fill="#ffffff" stroke="#18202a" stroke-width="2"/><text x="67" y="393" font-family="Arial, Helvetica, sans-serif" font-size="14" text-anchor="start" font-weight="700" fill="#18202a">riscado</text><rect x="277.5" y="351" width="222.5" height="72" rx="4" fill="#ffffff" stroke="#18202a" stroke-width="2"/><text x="289.5" y="393" font-family="Arial, Helvetica, sans-serif" font-size="14" text-anchor="start" font-weight="400" fill="#18202a">riscado</text><rect x="500" y="351" width="222.5" height="72" rx="4" fill="#ffffff" stroke="#18202a" stroke-width="2"/><text x="512" y="393" font-family="Arial, Helvetica, sans-serif" font-size="14" text-anchor="start" font-weight="400" fill="#18202a">Leo</text><rect x="722.5" y="351" width="222.5" height="72" rx="4" fill="#ffffff" stroke="#18202a" stroke-width="2"/><text x="734.5" y="393" font-family="Arial, Helvetica, sans-serif" font-size="14" text-anchor="start" font-weight="400" fill="#18202a">Maira</text>
  <text x="50" y="590" font-family="Arial, Helvetica, sans-serif" font-size="14" text-anchor="start" font-weight="400" fill="#18202a">Uso: lugares; mostra casos riscados e disposição final destacada.</text>
  </svg>