<svg xmlns="http://www.w3.org/2000/svg" width="1000" height="620" viewBox="0 0 1000 620" role="img" aria-labelledby="title desc">
  <title id="title">Perímetro cresce dois por peça</title><desc id="desc">Uso: quadradinhos em fila; compara casos e destaca o acréscimo de dois no perímetro.</desc>
  <rect width="1000" height="620" fill="#ffffff"/>
  <text x="50" y="52" font-family="Arial, Helvetica, sans-serif" font-size="27" text-anchor="start" font-weight="700" fill="#18202a">Perímetro cresce dois por peça</text>
  <line x1="50" y1="72" x2="950" y2="72" stroke="#7a8a99" stroke-width="1" />
  <rect x="65" y="170" width="42" height="42" rx="0" fill="#ffffff" stroke="#18202a" stroke-width="2"/><text x="86" y="245" font-family="Arial, Helvetica, sans-serif" font-size="18" text-anchor="middle" font-weight="700" fill="#18202a">P=4</text><rect x="285" y="170" width="42" height="42" rx="0" fill="#ffffff" stroke="#18202a" stroke-width="2"/><rect x="327" y="170" width="42" height="42" rx="0" fill="#dcecf7" stroke="#18202a" stroke-width="2"/><text x="327" y="245" font-family="Arial, Helvetica, sans-serif" font-size="18" text-anchor="middle" font-weight="700" fill="#18202a">P=6</text><rect x="505" y="170" width="42" height="42" rx="0" fill="#ffffff" stroke="#18202a" stroke-width="2"/><rect x="547" y="170" width="42" height="42" rx="0" fill="#ffffff" stroke="#18202a" stroke-width="2"/><rect x="589" y="170" width="42" height="42" rx="0" fill="#dcecf7" stroke="#18202a" stroke-width="2"/><text x="568" y="245" font-family="Arial, Helvetica, sans-serif" font-size="18" text-anchor="middle" font-weight="700" fill="#18202a">P=8</text><rect x="725" y="170" width="42" height="42" rx="0" fill="#ffffff" stroke="#18202a" stroke-width="2"/><rect x="767" y="170" width="42" height="42" rx="0" fill="#ffffff" stroke="#18202a" stroke-width="2"/><rect x="809" y="170" width="42" height="42" rx="0" fill="#ffffff" stroke="#18202a" stroke-width="2"/><rect x="851" y="170" width="42" height="42" rx="0" fill="#dcecf7" stroke="#18202a" stroke-width="2"/><text x="809" y="245" font-family="Arial, Helvetica, sans-serif" font-size="18" text-anchor="middle" font-weight="700" fill="#18202a">P=10</text>
  <text x="50" y="590" font-family="Arial, Helvetica, sans-serif" font-size="14" text-anchor="start" font-weight="400" fill="#18202a">Uso: quadradinhos em fila; compara casos e destaca o acréscimo de dois no perímetro.</text>
  </svg>