<svg xmlns="http://www.w3.org/2000/svg" width="1000" height="620" viewBox="0 0 1000 620" role="img" aria-labelledby="title desc">
  <title id="title">Checklist dos cinco olhos</title><desc id="desc">Uso: revisão; mantém visíveis resposta, justificativa, unidades, casos e coerência.</desc>
  <rect width="1000" height="620" fill="#ffffff"/>
  <text x="50" y="52" font-family="Arial, Helvetica, sans-serif" font-size="27" text-anchor="start" font-weight="700" fill="#18202a">Checklist dos cinco olhos</text>
  <line x1="50" y1="72" x2="950" y2="72" stroke="#7a8a99" stroke-width="1" />
  <rect x="70" y="250" width="145" height="76" rx="4" fill="#f6f8fa" stroke="#18202a" stroke-width="2"/><text x="142.5" y="284" font-family="Arial, Helvetica, sans-serif" font-size="17" text-anchor="middle" font-weight="700" fill="#18202a">resposta</text><line x1="215" y1="288" x2="222" y2="288" stroke="#506070" stroke-width="2" /><path d="M 214 283 L 222 288 L 214 293" fill="none" stroke="#506070" stroke-width="2"/><rect x="240" y="250" width="145" height="76" rx="4" fill="#f6f8fa" stroke="#18202a" stroke-width="2"/><text x="312.5" y="284" font-family="Arial, Helvetica, sans-serif" font-size="17" text-anchor="middle" font-weight="700" fill="#18202a">justificativa</text><line x1="385" y1="288" x2="392" y2="288" stroke="#506070" stroke-width="2" /><path d="M 384 283 L 392 288 L 384 293" fill="none" stroke="#506070" stroke-width="2"/><rect x="410" y="250" width="145" height="76" rx="4" fill="#f6f8fa" stroke="#18202a" stroke-width="2"/><text x="482.5" y="284" font-family="Arial, Helvetica, sans-serif" font-size="17" text-anchor="middle" font-weight="700" fill="#18202a">unidades</text><line x1="555" y1="288" x2="562" y2="288" stroke="#506070" stroke-width="2" /><path d="M 554 283 L 562 288 L 554 293" fill="none" stroke="#506070" stroke-width="2"/><rect x="580" y="250" width="145" height="76" rx="4" fill="#f6f8fa" stroke="#18202a" stroke-width="2"/><text x="652.5" y="284" font-family="Arial, Helvetica, sans-serif" font-size="17" text-anchor="middle" font-weight="700" fill="#18202a">casos</text><line x1="725" y1="288" x2="732" y2="288" stroke="#506070" stroke-width="2" /><path d="M 724 283 L 732 288 L 724 293" fill="none" stroke="#506070" stroke-width="2"/><rect x="750" y="250" width="145" height="76" rx="4" fill="#f6f8fa" stroke="#18202a" stroke-width="2"/><text x="822.5" y="284" font-family="Arial, Helvetica, sans-serif" font-size="17" text-anchor="middle" font-weight="700" fill="#18202a">coerência</text>
  <text x="50" y="590" font-family="Arial, Helvetica, sans-serif" font-size="14" text-anchor="start" font-weight="400" fill="#18202a">Uso: revisão; mantém visíveis resposta, justificativa, unidades, casos e coerência.</text>
  </svg>