<svg xmlns="http://www.w3.org/2000/svg" width="1000" height="620" viewBox="0 0 1000 620" role="img" aria-labelledby="title desc">
  <title id="title">Do diagnóstico à evidência em sete dias</title><desc id="desc">Uso: plano de retorno; propõe uma evidência concreta sem horário rígido.</desc>
  <rect width="1000" height="620" fill="#ffffff"/>
  <text x="50" y="52" font-family="Arial, Helvetica, sans-serif" font-size="27" text-anchor="start" font-weight="700" fill="#18202a">Do diagnóstico à evidência em sete dias</text>
  <line x1="50" y1="72" x2="950" y2="72" stroke="#7a8a99" stroke-width="1" />
  <rect x="70" y="250" width="145" height="76" rx="4" fill="#f6f8fa" stroke="#18202a" stroke-width="2"/><text x="142.5" y="284" font-family="Arial, Helvetica, sans-serif" font-size="17" text-anchor="middle" font-weight="700" fill="#18202a">diagnóstico</text><line x1="215" y1="288" x2="264.5" y2="288" stroke="#506070" stroke-width="2" /><path d="M 256.5 283 L 264.5 288 L 256.5 293" fill="none" stroke="#506070" stroke-width="2"/><rect x="282.5" y="250" width="145" height="76" rx="4" fill="#f6f8fa" stroke="#18202a" stroke-width="2"/><text x="355" y="284" font-family="Arial, Helvetica, sans-serif" font-size="17" text-anchor="middle" font-weight="700" fill="#18202a">tentativa</text><line x1="427.5" y1="288" x2="477" y2="288" stroke="#506070" stroke-width="2" /><path d="M 469 283 L 477 288 L 469 293" fill="none" stroke="#506070" stroke-width="2"/><rect x="495" y="250" width="145" height="76" rx="4" fill="#f6f8fa" stroke="#18202a" stroke-width="2"/><text x="567.5" y="284" font-family="Arial, Helvetica, sans-serif" font-size="17" text-anchor="middle" font-weight="700" fill="#18202a">registro</text><line x1="640" y1="288" x2="689.5" y2="288" stroke="#506070" stroke-width="2" /><path d="M 681.5 283 L 689.5 288 L 681.5 293" fill="none" stroke="#506070" stroke-width="2"/><rect x="707.5" y="250" width="145" height="76" rx="4" fill="#f6f8fa" stroke="#18202a" stroke-width="2"/><text x="780" y="284" font-family="Arial, Helvetica, sans-serif" font-size="17" text-anchor="middle" font-weight="700" fill="#18202a">evidência em 7 dias</text>
  <text x="50" y="590" font-family="Arial, Helvetica, sans-serif" font-size="14" text-anchor="start" font-weight="400" fill="#18202a">Uso: plano de retorno; propõe uma evidência concreta sem horário rígido.</text>
  </svg>